Coordinates
version=1
nRows=37
nColumns=38
inDegrees=no

Units are S.I. units (second, meters, Newtons, ...)
If the header above contains a line with 'inDegrees', this indicates whether rotational values are in degrees (yes) or radians (no).

endheader
time	pelvis_tilt	pelvis_list	pelvis_rotation	pelvis_tx	pelvis_ty	pelvis_tz	hip_flexion_r	hip_adduction_r	hip_rotation_r	knee_angle_r	ankle_angle_r	subtalar_angle_r	mtp_angle_r	hip_flexion_l	hip_adduction_l	hip_rotation_l	knee_angle_l	ankle_angle_l	subtalar_angle_l	mtp_angle_l	lumbar_extension	lumbar_bending	lumbar_rotation	arm_flex_r	arm_add_r	arm_rot_r	elbow_flex_r	pro_sup_r	wrist_flex_r	wrist_dev_r	arm_flex_l	arm_add_l	arm_rot_l	elbow_flex_l	pro_sup_l	wrist_flex_l	wrist_dev_l
120	-3.01889	1.17618	-1.50984	0.849147	-0.576694	1.10235	-0.463973	-0.0193831	-0.215754	0.0769508	-0.473373	0	0	-0.461412	-0.0432831	-0.0866219	0.198475	-0.287812	0	0	-0.677187	0.0619209	0.0756729	0.244286	-0.421906	0.709672	0.365596	1.5708	0	0	0.294024	-0.196821	0.410964	0.354984	1.5708	0	0
120.01	-3.01812	1.16502	-1.51017	0.849303	-0.57812	1.10289	-0.475909	-0.0186018	-0.217764	0.0751025	-0.474421	0	0	-0.473856	-0.0437266	-0.0876189	0.195678	-0.288752	0	0	-0.704405	0.057136	0.0693403	0.250292	-0.416689	0.716427	0.34496	1.5708	0	0	0.301687	-0.202034	0.411194	0.325663	1.5708	0	0
120.02	-3.01786	1.1573	-1.5113	0.849309	-0.579268	1.10331	-0.483875	-0.0188575	-0.21839	0.0739083	-0.475182	0	0	-0.48348	-0.0430626	-0.0883903	0.191497	-0.290453	0	0	-0.724259	0.053634	0.0645917	0.253334	-0.413665	0.723456	0.327677	1.5708	0	0	0.308716	-0.201686	0.401518	0.289886	1.5708	0	0
120.03	-3.01936	1.17209	-1.51096	0.848933	-0.578254	1.10263	-0.468792	-0.0199628	-0.2172	0.0727283	-0.476521	0	0	-0.469825	-0.0414531	-0.0865696	0.18782	-0.292362	0	0	-0.68874	0.0714524	0.0734078	0.234122	-0.418702	0.735656	0.298825	1.5708	0	0	0.337904	-0.14749	0.182951	0.114203	1.5708	0	0
120.04	-3.01733	1.16867	-1.51211	0.848986	-0.579058	1.10284	-0.47295	-0.0200682	-0.219453	0.0705814	-0.478003	0	0	-0.474518	-0.041012	-0.0854823	0.184056	-0.294406	0	0	-0.697927	0.0683045	0.0712864	0.231042	-0.416491	0.739991	0.286278	1.5708	0	0	0.347755	-0.149342	0.193727	0.078055	1.5708	0	0
120.05	-3.01592	1.16783	-1.51268	0.849015	-0.579678	1.10294	-0.474285	-0.0200816	-0.220475	0.0686829	-0.479186	0	0	-0.476261	-0.0408259	-0.0849783	0.180805	-0.29596	0	0	-0.703893	0.0656285	0.0680886	0.228525	-0.414295	0.7433	0.276747	1.5708	0	0	0.351262	-0.153932	0.21615	0.054525	1.5708	0	0
120.06	-3.01431	1.14791	-1.51317	0.849308	-0.582193	1.10396	-0.494805	-0.0190368	-0.222435	0.0675829	-0.479671	0	0	-0.496226	-0.0420353	-0.0870967	0.180761	-0.295699	0	0	-0.764065	0.0416353	0.0431706	0.25527	-0.403587	0.753838	0.286018	1.5708	0	0	0.339705	-0.189361	0.293789	0.130326	1.5708	0	0
120.07	-3.01404	1.14816	-1.51311	0.84927	-0.582618	1.10399	-0.494751	-0.0190293	-0.222115	0.0663135	-0.480655	0	0	-0.49577	-0.0419982	-0.0869778	0.180547	-0.295618	0	0	-0.76829	0.0394854	0.0381257	0.25513	-0.403125	0.765965	0.284272	1.5708	0	0	0.350022	-0.185068	0.252002	0.0870145	1.5708	0	0
120.08	-3.01371	1.14824	-1.51305	0.849219	-0.583051	1.10404	-0.494794	-0.0190237	-0.221882	0.0651177	-0.481807	0	0	-0.495654	-0.0418888	-0.0863231	0.179731	-0.296001	0	0	-0.771673	0.0378072	0.0342156	0.254251	-0.404146	0.778269	0.286619	1.5708	0	0	0.359402	-0.182114	0.213993	0.0496014	1.5708	0	0
120.09	-3.01302	1.14766	-1.51308	0.849138	-0.583537	1.10413	-0.495606	-0.0190355	-0.222212	0.0638376	-0.483209	0	0	-0.496112	-0.0418184	-0.0856521	0.178993	-0.296739	0	0	-0.774722	0.0368095	0.0306668	0.25341	-0.40637	0.789684	0.292532	1.5708	0	0	0.368007	-0.180169	0.173867	0.0168829	1.5708	0	0
120.1	-3.0123	1.14685	-1.51312	0.849021	-0.584019	1.10422	-0.496599	-0.0190627	-0.222855	0.0627433	-0.484599	0	0	-0.496715	-0.041761	-0.0851562	0.17844	-0.297462	0	0	-0.777411	0.03696	0.0262375	0.254488	-0.41079	0.808286	0.302939	1.5708	0	0	0.371172	-0.181051	0.142765	3.19727e-08	1.5708	0	0
120.11	-3.01218	1.14694	-1.51275	0.848839	-0.584396	1.10425	-0.49648	-0.0190973	-0.223332	0.062135	-0.485248	0	0	-0.496342	-0.0418061	-0.0851146	0.178204	-0.297753	0	0	-0.77844	0.0373007	0.0237076	0.254316	-0.416614	0.827534	0.317106	1.5708	0	0	0.36929	-0.183377	0.13256	0	1.5708	0	0
120.12	-3.00574	1.18045	-1.51726	0.848772	-0.581752	1.10274	-0.461935	-0.0223511	-0.223508	0.062677	-0.48295	0	0	-0.45969	-0.0385344	-0.0773677	0.181215	-0.297325	0	0	-0.733457	0.0113578	0.016577	0.240098	-0.362019	0.283094	0.261436	0.436978	0	0	0.360623	-0.195924	0.144685	0	1.5708	0	0
120.13	-3.00166	1.18011	-1.51804	0.84855	-0.581878	1.10286	-0.463305	-0.0223866	-0.223349	0.061522	-0.484002	0	0	-0.460254	-0.0388955	-0.0798678	0.179432	-0.297801	0	0	-0.73631	0.0138941	0.0164973	0.231828	-0.362098	0.283227	0.280185	0.632741	0	0	0.355992	-0.197796	0.129693	0	1.5708	0	0
120.14	-3.01179	1.1459	-1.51137	0.848306	-0.585335	1.10432	-0.498527	-0.0187037	-0.224078	0.0587825	-0.488747	0	0	-0.496756	-0.0422199	-0.0845435	0.177585	-0.298737	0	0	-0.780996	0.0392911	0.0235679	0.242929	-0.420146	0.751213	0.354804	1.5708	0	0	0.365678	-0.186393	0.0959475	0	1.5708	0	0
120.15	-3.01202	1.14503	-1.51054	0.848111	-0.585565	1.10435	-0.500056	-0.0183138	-0.22468	0.0572852	-0.490168	0	0	-0.497671	-0.0425056	-0.0845686	0.177097	-0.299083	0	0	-0.780279	0.0405208	0.024053	0.239554	-0.423371	0.739983	0.370633	1.5708	0	0	0.36332	-0.186842	0.0856634	0	1.5708	0	0
120.16	-3.01205	1.14413	-1.50996	0.847925	-0.585741	1.10437	-0.501611	-0.0180199	-0.225632	0.0558974	-0.491131	0	0	-0.498799	-0.0426962	-0.0846834	0.176416	-0.299402	0	0	-0.77841	0.041837	0.0253077	0.235573	-0.42709	0.731299	0.387425	1.5708	0	0	0.360091	-0.186874	0.0816597	0	1.5708	0	0
120.17	-3.01233	1.14349	-1.50941	0.847767	-0.585856	1.10436	-0.502863	-0.0177006	-0.226595	0.0544552	-0.49246	0	0	-0.499744	-0.0428515	-0.0849321	0.175746	-0.299636	0	0	-0.775591	0.043193	0.0275094	0.230728	-0.42929	0.710339	0.402996	1.5708	0	0	0.353688	-0.187548	0.0901641	0.00617578	1.5708	0	0
120.18	-3.01282	1.14346	-1.50892	0.847647	-0.585904	1.10431	-0.503412	-0.0174153	-0.227412	0.0531028	-0.493568	0	0	-0.499948	-0.0429207	-0.0851711	0.175408	-0.299667	0	0	-0.771649	0.0445334	0.0289273	0.226618	-0.430288	0.685112	0.417665	1.5708	0	0	0.342005	-0.190245	0.107515	0.0293946	1.5708	0	0
120.19	-3.01311	1.14379	-1.50876	0.847558	-0.585902	1.10427	-0.503727	-0.0172245	-0.227317	0.0514639	-0.494547	0	0	-0.499758	-0.0427997	-0.0852845	0.175067	-0.299804	0	0	-0.766814	0.0451833	0.0305934	0.221804	-0.430234	0.655857	0.432022	1.5708	0	0	0.328782	-0.194293	0.131152	0.057011	1.5708	0	0
120.2	-3.01294	1.1441	-1.50879	0.847459	-0.585795	1.10423	-0.504726	-0.0169939	-0.22417	0.049109	-0.494888	0	0	-0.499887	-0.0426238	-0.0850507	0.174302	-0.300101	0	0	-0.761041	0.0456579	0.0318438	0.216601	-0.429425	0.625764	0.445813	1.5708	0	0	0.3152	-0.198955	0.15253	0.0856006	1.5708	0	0
120.21	-3.01266	1.14443	-1.50852	0.847337	-0.585576	1.10419	-0.506145	-0.016594	-0.218265	0.0465679	-0.494739	0	0	-0.499981	-0.0427212	-0.0848306	0.173759	-0.300422	0	0	-0.754649	0.0462009	0.0326682	0.21075	-0.427532	0.592586	0.458759	1.5708	0	0	0.300634	-0.204629	0.17298	0.116626	1.5708	0	0
120.22	-3.01273	1.14542	-1.50834	0.847256	-0.585388	1.10411	-0.506215	-0.0163981	-0.215625	0.0447599	-0.495101	0	0	-0.499213	-0.0427287	-0.0847702	0.173312	-0.300863	0	0	-0.747412	0.0465185	0.0336249	0.205473	-0.425933	0.563632	0.471056	1.5708	0	0	0.286564	-0.210101	0.185836	0.146858	1.5708	0	0
120.23	-3.01299	1.14664	-1.5084	0.847225	-0.585263	1.10403	-0.505619	-0.0163935	-0.214687	0.043368	-0.495632	0	0	-0.498238	-0.042516	-0.0845069	0.17261	-0.301346	0	0	-0.739921	0.0463733	0.0348565	0.200309	-0.42418	0.535481	0.482847	1.5708	0	0	0.273103	-0.215189	0.194536	0.176757	1.5708	0	0
120.24	-3.01318	1.14802	-1.50853	0.847214	-0.585138	1.10396	-0.504731	-0.0164257	-0.2138	0.0421789	-0.496102	0	0	-0.497204	-0.0422266	-0.0836789	0.171707	-0.301739	0	0	-0.732266	0.0461878	0.0361259	0.194658	-0.421718	0.506754	0.493125	1.5708	0	0	0.260221	-0.219773	0.198878	0.205769	1.5708	0	0
120.25	-3.0133	1.14907	-1.50838	0.8472	-0.585074	1.10392	-0.504052	-0.016301	-0.213299	0.0413285	-0.496516	0	0	-0.496306	-0.0421539	-0.0825333	0.171172	-0.301894	0	0	-0.724448	0.0463171	0.0373991	0.18864	-0.418984	0.479077	0.501801	1.5708	0	0	0.248956	-0.22321	0.199348	0.231231	1.5708	0	0
120.26	-3.01352	1.15083	-1.50793	0.847233	-0.585005	1.10384	-0.502471	-0.0159878	-0.214303	0.0404751	-0.4976	0	0	-0.494139	-0.0423207	-0.0813318	0.171695	-0.301696	0	0	-0.716836	0.0463041	0.0387634	0.181486	-0.413817	0.438697	0.510903	1.5708	0	0	0.238944	-0.226717	0.201082	0.255198	1.5708	0	0
120.27	-3.01444	1.15288	-1.50746	0.847247	-0.584882	1.10374	-0.500256	-0.0158375	-0.216871	0.0399613	-0.498752	0	0	-0.491872	-0.0424164	-0.0811242	0.17206	-0.301667	0	0	-0.709091	0.0465794	0.0401718	0.175888	-0.409988	0.409872	0.517726	1.5708	0	0	0.230633	-0.228453	0.19927	0.273843	1.5708	0	0
120.28	-3.0154	1.15446	-1.50709	0.847217	-0.584659	1.10368	-0.498807	-0.0157829	-0.21771	0.0393497	-0.499398	0	0	-0.49058	-0.0424534	-0.0813198	0.171645	-0.301953	0	0	-0.702134	0.0469588	0.0415896	0.170863	-0.406589	0.385946	0.522736	1.5708	0	0	0.22344	-0.229227	0.195398	0.289546	1.5708	0	0
120.29	-3.01622	1.15583	-1.50667	0.847168	-0.584437	1.10364	-0.4977	-0.0156996	-0.217214	0.0387507	-0.499604	0	0	-0.489585	-0.042467	-0.0812194	0.171029	-0.302331	0	0	-0.696315	0.0474842	0.0425862	0.166842	-0.403198	0.364592	0.526326	1.5708	0	0	0.217528	-0.229323	0.189968	0.302799	1.5708	0	0
120.3	-3.01686	1.15687	-1.50627	0.847094	-0.584306	1.10362	-0.496785	-0.0156339	-0.216371	0.0384888	-0.499354	0	0	-0.488768	-0.0424324	-0.0808643	0.170562	-0.302608	0	0	-0.6919	0.0480867	0.0431112	0.163971	-0.399463	0.344666	0.528025	1.5708	0	0	0.21336	-0.228643	0.183788	0.313173	1.5708	0	0
120.31	-3.01772	1.15785	-1.50586	0.847015	-0.584189	1.10361	-0.495613	-0.0156488	-0.215649	0.0389214	-0.49826	0	0	-0.487992	-0.0423464	-0.0808379	0.170209	-0.302756	0	0	-0.688234	0.0488885	0.0436443	0.162109	-0.395819	0.327009	0.527691	1.5708	0	0	0.210531	-0.227339	0.177341	0.320693	1.5708	0	0
120.32	-3.01905	1.15878	-1.50555	0.846923	-0.584044	1.10358	-0.494042	-0.0159292	-0.214655	0.0403191	-0.495488	0	0	-0.487505	-0.0421248	-0.081666	0.169666	-0.302835	0	0	-0.684744	0.0498546	0.0444988	0.160756	-0.392988	0.313051	0.526569	1.5708	0	0	0.208502	-0.225396	0.1707	0.325593	1.5708	0	0
120.33	-3.02061	1.15915	-1.50523	0.846814	-0.583951	1.10357	-0.49271	-0.0163343	-0.213905	0.0426345	-0.490477	0	0	-0.487752	-0.0418923	-0.0829589	0.1689	-0.302576	0	0	-0.681851	0.0511202	0.0444162	0.161341	-0.39145	0.308916	0.524111	1.5708	0	0	0.206467	-0.223727	0.166057	0.329435	1.5708	0	0
120.34	-3.02176	1.15915	-1.50486	0.846778	-0.583954	1.10361	-0.492895	-0.0162462	-0.212601	0.0414105	-0.495219	0	0	-0.488278	-0.0418126	-0.0831478	0.168008	-0.303135	0	0	-0.680731	0.0518034	0.0463224	0.159343	-0.388762	0.295824	0.523002	1.5708	0	0	0.207396	-0.221786	0.163693	0.331702	1.5708	0	0
120.35	-3.02272	1.15874	-1.50453	0.846779	-0.584046	1.10367	-0.493061	-0.0161859	-0.211703	0.0412697	-0.497128	0	0	-0.489105	-0.0418554	-0.0833537	0.167098	-0.303568	0	0	-0.680109	0.052832	0.0472433	0.158689	-0.386355	0.287005	0.520943	1.5708	0	0	0.20873	-0.219794	0.161424	0.332499	1.5708	0	0
120.36	-3.02392	1.15822	-1.50409	0.846807	-0.584145	1.10374	-0.493239	-0.0160419	-0.210773	0.0413704	-0.498476	0	0	-0.489735	-0.0419368	-0.0835356	0.1669	-0.303889	0	0	-0.680013	0.0539806	0.0481334	0.15836	-0.383651	0.27808	0.518489	1.5708	0	0	0.210654	-0.217387	0.158403	0.332367	1.5708	0	0
